<svg xmlns="http://www.w3.org/2000/svg" xmlns:xlink="http://www.w3.org/1999/xlink" width="42.113" height="24.632" viewBox="0 0 42.113 24.632">
  <defs>
    <clipPath id="clip-path">
      <rect id="長方形_24" data-name="長方形 24" width="42.113" height="24.632" fill="#005c27"/>
    </clipPath>
  </defs>
  <g id="グループ_14" data-name="グループ 14" transform="translate(0 0)">
    <g id="グループ_13" data-name="グループ 13" transform="translate(0 0)" clip-path="url(#clip-path)">
      <path id="パス_31" data-name="パス 31" d="M10.482,17.584a1.743,1.743,0,0,0,1.718-.033c.267-.286.55-.573.824-.85.362-.366.735-.744,1.07-1.116a.81.81,0,0,0,.225-.7.78.78,0,0,0-.336-.529,1.656,1.656,0,0,0-.771-.18,1.45,1.45,0,0,0-.607.123c-.031.047-.064.092-.1.137a10.384,10.384,0,0,1-2.066,1.995c-.034.024-.068.047-.1.069a.936.936,0,0,0-.147.564.716.716,0,0,0,.291.515" transform="translate(4.216 5.869)" fill="#005c27"/>
      <path id="パス_32" data-name="パス 32" d="M13.557,17.906a6.445,6.445,0,0,0,1.458-1.64.564.564,0,0,0-.074-.744.65.65,0,0,0-.421-.123,1.033,1.033,0,0,0-.65.213c-.339.375-.707.748-1.063,1.108-.247.249-.5.508-.741.761a.519.519,0,0,0-.062.351.531.531,0,0,0,.276.385,1.582,1.582,0,0,0,1.278-.311" transform="translate(4.964 6.373)" fill="#005c27"/>
      <path id="パス_33" data-name="パス 33" d="M12.551,14.512a1.321,1.321,0,0,0,.31-.976.679.679,0,0,0-.308-.472,1.051,1.051,0,0,0-.591-.165,1.942,1.942,0,0,0-1.083.379,8.053,8.053,0,0,0-.638.544c-.187.188-.4.386-.628.6-.264.257-.519.512-.711.717a.989.989,0,0,0-.226.776.629.629,0,0,0,.284.471,1.773,1.773,0,0,0,1.67-.013,9.6,9.6,0,0,0,1.921-1.856" transform="translate(3.587 5.339)" fill="#005c27"/>
      <path id="パス_34" data-name="パス 34" d="M27.69,16.3c-.382-1.113-2.105-3.159-4.785-5.719a10.385,10.385,0,0,1-3.648-3.277A7.918,7.918,0,0,1,17.437,7.2a3.751,3.751,0,0,1-1.681,1.729c-.441.232-2.22.56-2.9-.139-.257-.266-.462-.762.023-1.622a7.615,7.615,0,0,0,.389-.908,4.807,4.807,0,0,1,1.2-2.081A10.681,10.681,0,0,1,10.044,3.6l-4.25,9.592a7.425,7.425,0,0,1,1.029.621A8.541,8.541,0,0,1,8.54,15.588c.2-.115.366-.206.468-.26l.02-.011a2.606,2.606,0,0,1,2.534-.1,1.355,1.355,0,0,1,.649.911c0,.025.006.049.007.074a2.061,2.061,0,0,1,1.937.093,1.409,1.409,0,0,1,.631.973,1.684,1.684,0,0,1-.008.564,2.45,2.45,0,0,1,1.381.256,1.531,1.531,0,0,1,.727,1.465,1.475,1.475,0,0,1,1.116.3,1.309,1.309,0,0,1,.209,1.7,7.578,7.578,0,0,1-.631.862c1.6.585,2.754.707,3.225.324a.529.529,0,0,0,.109-.378.568.568,0,0,0-.219-.447l-.072-.049-.034-.028-1.912-1.39a.372.372,0,0,1,.438-.6l2,1.459h0l.454.314a1.216,1.216,0,0,0,1.753-.117,1.405,1.405,0,0,0-.018-1.274l-3.241-2.213a.372.372,0,1,1,.42-.614l3.529,2.411a1.228,1.228,0,0,0,.762.066,1.019,1.019,0,0,0,.7-1.661.572.572,0,0,1-.033-.048l-3.424-2.691a.37.37,0,0,1-.064-.522.374.374,0,0,1,.523-.064l3.9,3.061a.607.607,0,0,0,.454.076,1.065,1.065,0,0,0,.67-.45,1.559,1.559,0,0,0,.266-.546c.006-.024.01-.048.014-.074a1.1,1.1,0,0,0-.075-.618.287.287,0,0,1-.016-.037" transform="translate(2.398 1.49)" fill="#005c27"/>
      <path id="パス_35" data-name="パス 35" d="M12.244,3.477,8.807,1.954a.051.051,0,0,0-.038,0C8.756,1.959,8.748,1.967,5,.245L0,11.521c3.74,1.75,3.742,1.764,3.745,1.773a.046.046,0,0,0,.027.027l3.436,1.523a.05.05,0,0,0,.066-.025l5-11.276a.047.047,0,0,0,0-.037.048.048,0,0,0-.027-.028" transform="translate(0 0.102)" fill="#005c27"/>
      <path id="パス_36" data-name="パス 36" d="M25.583,14.945l3.437-1.523a.043.043,0,0,0,.025-.027c0-.01.006-.023,4.578-2.119L28.628,0c-4.584,2.068-4.594,2.06-4.606,2.054l-.018,0-.02,0L20.547,3.578a.043.043,0,0,0-.025.027.045.045,0,0,0,0,.038l5,11.276a.048.048,0,0,0,.065.025" transform="translate(8.491 0)" fill="#005c27"/>
      <path id="パス_37" data-name="パス 37" d="M7.586,14.6a1.53,1.53,0,0,0,1.7-.049,14.088,14.088,0,0,0,1.34-1.3.835.835,0,0,0,.243-.556.663.663,0,0,0-.329-.4,1.141,1.141,0,0,0-.633-.16,2.482,2.482,0,0,0-1.133.3l-.02.01a7,7,0,0,0-1.174.749.947.947,0,0,0-.338.718.906.906,0,0,0,.341.683" transform="translate(2.998 5.024)" fill="#005c27"/>
      <path id="パス_38" data-name="パス 38" d="M24.239,3.7a13.239,13.239,0,0,1-2.282.563h0A7.513,7.513,0,0,1,19.2,3.8a8.574,8.574,0,0,0-1.988-.413,7.339,7.339,0,0,0-2.309.653c-.585.229-1.25.489-2.053.738-.443.137-.82,1.116-1.1,1.831a8.156,8.156,0,0,1-.435,1c-.116.208-.29.58-.137.738.344.353,1.728.151,2.018,0a2.654,2.654,0,0,0,1.379-1.523.368.368,0,0,1,.143-.263.373.373,0,0,1,.29-.074,6.921,6.921,0,0,0,2.158.133.375.375,0,0,1,.392.181,8.15,8.15,0,0,0,1.51,1.79,9.644,9.644,0,0,0,3.635,2.121.372.372,0,0,1-.113.727.362.362,0,0,1-.055,0,25.6,25.6,0,0,1,3.088,3.622,13.7,13.7,0,0,1,1.388-1.216,7.639,7.639,0,0,1,1.391-.747Z" transform="translate(4.604 1.403)" fill="#005c27"/>
    </g>
  </g>
</svg>
