<svg id="PDFアイコン" xmlns="http://www.w3.org/2000/svg" width="19.409" height="23.855" viewBox="0 0 19.409 23.855">
  <path id="パス_901" data-name="パス 901" d="M63.114,0h-8.54L54.14.434l-6,6-.434.434V19.853a4.006,4.006,0,0,0,4,4H63.114a4.006,4.006,0,0,0,4-4V4A4.006,4.006,0,0,0,63.114,0Zm2.52,19.853a2.52,2.52,0,0,1-2.52,2.52H51.708a2.52,2.52,0,0,1-2.521-2.52V7.482h3.9a2.1,2.1,0,0,0,2.1-2.1v-3.9h7.926A2.52,2.52,0,0,1,65.634,4Z" transform="translate(-47.706)" fill="#005c27"/>
  <path id="パス_902" data-name="パス 902" d="M1.2-5.429H2.773a.635.635,0,0,0,.3-.069.5.5,0,0,0,.2-.2.585.585,0,0,0,.072-.294V-6.3a.626.626,0,0,0-.07-.3.479.479,0,0,0-.2-.2.645.645,0,0,0-.308-.069H1.2V-7.81H2.773a2.3,2.3,0,0,1,.928.173,1.346,1.346,0,0,1,.607.5,1.373,1.373,0,0,1,.212.766v.455a1.329,1.329,0,0,1-.214.756,1.375,1.375,0,0,1-.607.494,2.282,2.282,0,0,1-.926.173H1.2ZM.671-7.81h1.14v5.417H.671ZM5.984-3.327H7.155a.965.965,0,0,0,.623-.179A.611.611,0,0,0,8-4.009V-6.2a.606.606,0,0,0-.221-.5.972.972,0,0,0-.623-.177H5.984V-7.81h1.21a2.778,2.778,0,0,1,1.068.184,1.436,1.436,0,0,1,.675.54,1.526,1.526,0,0,1,.232.851v2.262a1.518,1.518,0,0,1-.227.838,1.467,1.467,0,0,1-.671.548,2.7,2.7,0,0,1-1.081.194H5.984ZM5.324-7.81h1.14v5.417H5.324Zm4.779,0h1.14v5.417H10.1ZM10.562-5.5h2.691v.935H10.562Zm0-2.306H13.6v.935H10.562Z" transform="translate(2.568 19.028)" fill="#005c27"/>
</svg>
