<svg xmlns="http://www.w3.org/2000/svg" width="26.5" height="26.25" viewBox="0 0 26.5 26.25">
  <path id="icon_tel-blue" d="M105.513,256.871h0a3.065,3.065,0,0,1,3.04,2.644l.666,4.813a3.07,3.07,0,0,1-2.615,3.456l-.162.022a14.488,14.488,0,0,0,8.043,7.98,3.066,3.066,0,0,1,3.037-2.69c.077,0,.155,0,.232.009l4.845.358a3.067,3.067,0,0,1,2.83,3.28l-.26,3.538a3.062,3.062,0,0,1-3.05,2.84c-.077,0-.155,0-.233-.009l-2.543-.188c-.689-.017-1.378-.068-2.049-.152l-.251-.018a3,3,0,0,1-.618-.114A20.566,20.566,0,0,1,99.28,263.1l-.313-2.257a3.07,3.07,0,0,1,2.615-3.456l3.514-.487A3.044,3.044,0,0,1,105.513,256.871Zm10.779,21.605-1.195-.36a16.487,16.487,0,0,1-10.967-10.832l-.354-1.128,2.554-.354a1.067,1.067,0,0,0,.909-1.2l-.666-4.813a1.065,1.065,0,0,0-1.059-.918,1.041,1.041,0,0,0-.142.01l-3.514.487a1.067,1.067,0,0,0-.909,1.2l.327,2.358,0,.052a18.624,18.624,0,0,0,15.538,17.7l.069.011.067.021a1.079,1.079,0,0,0,.24.05l.327.025a18.944,18.944,0,0,0,1.9.141l.05,0,2.568.189c.029,0,.057,0,.084,0a1.062,1.062,0,0,0,1.056-.986l.26-3.538a1.065,1.065,0,0,0-.982-1.139l-4.847-.358c-.029,0-.057,0-.084,0a1.041,1.041,0,0,0-.689.258,1.057,1.057,0,0,0-.367.728Z" transform="translate(-98.938 -256.871)" fill="#042274"/>
</svg>
