<svg xmlns="http://www.w3.org/2000/svg" width="17.914" height="24.232" viewBox="0 0 17.914 24.232">
  <g id="本の無料アイコン素材" transform="translate(-66.75)">
    <path id="パス_17865" data-name="パス 17865" d="M83.26,4.418l-.895-2.961A.79.79,0,0,0,81.941,0h-12.2A2.989,2.989,0,0,0,66.75,2.988V22.28A1.952,1.952,0,0,0,68.7,24.232H83.019a1.644,1.644,0,0,0,1.645-1.644V6.038A1.641,1.641,0,0,0,83.26,4.418ZM69.738,4.394a1.407,1.407,0,1,1,0-2.813H81.191l.85,2.813Z" transform="translate(0 0)" fill="#fff"/>
  </g>
</svg>
