<svg xmlns="http://www.w3.org/2000/svg" xmlns:xlink="http://www.w3.org/1999/xlink" width="22.614" height="28.838" viewBox="0 0 22.614 28.838">
  <defs>
    <clipPath id="clip-path">
      <rect id="長方形_32" data-name="長方形 32" width="22.614" height="28.838" fill="#005c27"/>
    </clipPath>
  </defs>
  <g id="グループ_26" data-name="グループ 26" transform="translate(0 0)">
    <g id="グループ_25" data-name="グループ 25" transform="translate(0 0)" clip-path="url(#clip-path)">
      <path id="パス_41" data-name="パス 41" d="M8.5,2.036a.294.294,0,0,1-.294-.294V.294a.294.294,0,1,1,.588,0V1.742a.294.294,0,0,1-.294.294" transform="translate(2.806 0.001)" fill="#005c27"/>
      <path id="パス_42" data-name="パス 42" d="M13.54,4.016a.293.293,0,0,1-.208-.5L14.357,2.49a.293.293,0,1,1,.415.415L13.748,3.93a.293.293,0,0,1-.208.086" transform="translate(4.53 0.823)" fill="#005c27"/>
      <path id="パス_43" data-name="パス 43" d="M2.7,14.858a.293.293,0,0,1-.208-.5l1.025-1.025a.293.293,0,1,1,.415.415L2.9,14.772a.293.293,0,0,1-.208.086" transform="translate(0.822 4.531)" fill="#005c27"/>
      <path id="パス_44" data-name="パス 44" d="M17.076,8.793H15.627a.293.293,0,0,1,0-.586h1.449a.293.293,0,1,1,0,.586" transform="translate(5.244 2.807)" fill="#005c27"/>
      <path id="パス_45" data-name="パス 45" d="M1.743,8.793H.294a.293.293,0,1,1,0-.586H1.743a.293.293,0,1,1,0,.586" transform="translate(0 2.807)" fill="#005c27"/>
      <path id="パス_46" data-name="パス 46" d="M14.565,14.858a.293.293,0,0,1-.209-.086l-1.023-1.025a.289.289,0,0,1,0-.415.294.294,0,0,1,.415,0l1.025,1.025a.293.293,0,0,1-.208.5" transform="translate(4.53 4.531)" fill="#005c27"/>
      <path id="パス_47" data-name="パス 47" d="M3.722,4.016a.293.293,0,0,1-.208-.086L2.49,2.9A.293.293,0,0,1,2.9,2.49L3.93,3.515a.293.293,0,0,1-.208.5" transform="translate(0.822 0.823)" fill="#005c27"/>
      <path id="パス_48" data-name="パス 48" d="M11.253,2.56a.278.278,0,0,1-.113-.023.294.294,0,0,1-.158-.384l.56-1.337a.294.294,0,1,1,.542.227l-.56,1.337a.294.294,0,0,1-.271.18" transform="translate(3.748 0.218)" fill="#005c27"/>
      <path id="パス_49" data-name="パス 49" d="M15.095,6.232a.294.294,0,0,1-.111-.565l1.341-.55a.294.294,0,1,1,.223.544l-1.341.55a.294.294,0,0,1-.111.021" transform="translate(5.062 1.743)" fill="#005c27"/>
      <path id="パス_50" data-name="パス 50" d="M.906,12.046a.294.294,0,0,1-.111-.565l1.341-.55a.294.294,0,1,1,.223.544l-1.341.55a.294.294,0,0,1-.111.021" transform="translate(0.209 3.731)" fill="#005c27"/>
      <path id="パス_51" data-name="パス 51" d="M16.41,12.106a.278.278,0,0,1-.113-.023l-1.337-.56a.294.294,0,0,1,.225-.542l1.337.561a.293.293,0,0,1-.113.564" transform="translate(5.055 3.749)" fill="#005c27"/>
      <path id="パス_52" data-name="パス 52" d="M2.266,6.184a.278.278,0,0,1-.113-.023L.817,5.6a.294.294,0,0,1,.225-.542l1.337.561a.293.293,0,0,1-.113.564" transform="translate(0.218 1.723)" fill="#005c27"/>
      <path id="パス_53" data-name="パス 53" d="M5.938,2.54a.291.291,0,0,1-.271-.183l-.55-1.341A.294.294,0,0,1,5.66.794l.549,1.341a.292.292,0,0,1-.271.405" transform="translate(1.742 0.21)" fill="#005c27"/>
      <path id="パス_54" data-name="パス 54" d="M11.733,19.088H6.776a.507.507,0,0,1,0-1.013h4.957a.507.507,0,0,1,0,1.013" transform="translate(2.144 6.182)" fill="#005c27"/>
      <path id="パス_55" data-name="パス 55" d="M11.733,20.273H6.776a.507.507,0,0,1,0-1.013h4.957a.507.507,0,0,1,0,1.013" transform="translate(2.144 6.587)" fill="#005c27"/>
      <path id="パス_56" data-name="パス 56" d="M7.648,20.461a.2.2,0,0,0-.193.232,1.406,1.406,0,0,0,2.763,0,.2.2,0,0,0-.193-.232Z" transform="translate(2.548 6.998)" fill="#005c27"/>
      <path id="パス_57" data-name="パス 57" d="M11.774,2.827A7.674,7.674,0,0,0,9.17,2.8a7.478,7.478,0,0,0-6.3,7.416A10.363,10.363,0,0,0,5.017,16.3,10.308,10.308,0,0,1,7.07,21.468a1.331,1.331,0,0,0,1.322,1.227h3.98a1.331,1.331,0,0,0,1.322-1.227A10.321,10.321,0,0,1,15.748,16.3,10.364,10.364,0,0,0,17.9,10.212a7.512,7.512,0,0,0-6.125-7.385" transform="translate(0.981 0.924)" fill="#005c27"/>
    </g>
  </g>
</svg>
