<svg id="グループ_28" data-name="グループ 28" xmlns="http://www.w3.org/2000/svg" xmlns:xlink="http://www.w3.org/1999/xlink" width="22.482" height="23.496" viewBox="0 0 22.482 23.496">
  <defs>
    <clipPath id="clip-path">
      <rect id="長方形_33" data-name="長方形 33" width="22.482" height="23.496" fill="#005c27"/>
    </clipPath>
  </defs>
  <g id="グループ_27" data-name="グループ 27" clip-path="url(#clip-path)">
    <path id="パス_58" data-name="パス 58" d="M22.482,11.552V14.8c0,1.736-1,3.158-2.212,3.158H19.6v1.113a3.457,3.457,0,0,1-3.453,3.454H15.145a1.282,1.282,0,0,1-1.238.97H11.549a1.281,1.281,0,0,1-1.276-1.278v-.534a1.281,1.281,0,0,1,1.276-1.278h2.357a1.282,1.282,0,0,1,1.237.962h1.009a2.3,2.3,0,0,0,2.3-2.3V17.958H17.379c-.36,0-.653-.417-.653-.931v-7.7c0-.514.293-.931.653-.931h.16V7.973a5.407,5.407,0,0,0-5.4-5.4h-1.69a5.406,5.406,0,0,0-5.4,5.4v.421H5.1c.36,0,.651.417.651.931v7.7c0,.514-.291.931-.651.931H2.212C1,17.958,0,16.537,0,14.8V11.552C0,9.814,1,8.393,2.212,8.393h.262V7.973A7.982,7.982,0,0,1,10.449,0h1.69a7.982,7.982,0,0,1,7.973,7.973v.421h.158c1.217,0,2.212,1.421,2.212,3.159" fill="#005c27"/>
  </g>
</svg>
