<svg xmlns="http://www.w3.org/2000/svg" width="19.409" height="17.93" viewBox="0 0 19.409 17.93">
  <g id="グループ_80159" data-name="グループ 80159" transform="translate(-7918.935 24270.834)">
    <path id="パス_59781" data-name="パス 59781" d="M80.675,13.222a.323.323,0,0,0,.461,0L85.772,8.18a.313.313,0,0,0-.231-.525H83.479V.533A.533.533,0,0,0,82.947,0H78.864a.533.533,0,0,0-.533.533V7.655H76.269a.313.313,0,0,0-.23.525Z" transform="translate(7847.734 -24270.834)" fill="#005c27"/>
    <path id="パス_59782" data-name="パス 59782" d="M16.356,179.761v3.623H3.052v-3.623H0v6.675H19.408v-6.675Z" transform="translate(7918.936 -24439.34)" fill="#005c27"/>
  </g>
</svg>
