<svg xmlns="http://www.w3.org/2000/svg" xmlns:xlink="http://www.w3.org/1999/xlink" width="42.409" height="42.4" viewBox="0 0 42.409 42.4">
  <defs>
    <linearGradient id="linear-gradient" x1="0.906" y1="0.06" x2="0.5" y2="1" gradientUnits="objectBoundingBox">
      <stop offset="0" stop-color="#21d6be"/>
      <stop offset="1" stop-color="#005c27"/>
    </linearGradient>
  </defs>
  <g id="グループ_59229" data-name="グループ 59229" transform="translate(1.415 0.996)">
    <path id="合体_5" data-name="合体 5" d="M13536.449,8828.136l-8.577,8.578-1.413-1.417,8.577-8.574-9.756-9.756.709-.708a7.431,7.431,0,0,1,9.755-.657l12.029-12.028a5.195,5.195,0,0,1,7.985-6.569v0l10.406,10.406-1.413,1.413-10.406-10.406,0,0a3.2,3.2,0,0,0-4.683,4.342l10.7,10.7a3.194,3.194,0,0,0,4.389-4.639l1.417-1.417a5.2,5.2,0,0,1-6.574,7.987l-12.029,12.029a7.429,7.429,0,0,1-.656,9.755l-.708.709Zm-8.274-11.1,17.962,17.963a5.423,5.423,0,0,0-.646-6.909l.007-.007-10.406-10.406-.007.007a5.383,5.383,0,0,0-3.841-1.594h0A5.382,5.382,0,0,0,13528.175,8817.031Zm9.037-.067,8.993,8.992,11.911-11.911-8.993-8.993Zm10,2.421,5.656-5.656,1.413,1.413-5.656,5.656Z" transform="translate(-13526.695 -8796.484)" fill="url(#linear-gradient)"/>
  </g>
</svg>
