<svg xmlns="http://www.w3.org/2000/svg" width="24.076" height="23.852" viewBox="0 0 24.076 23.852">
  <path id="icon_tel-white" d="M104.961,256.871a2.86,2.86,0,0,1,2.837,2.468l.6,4.337a2.865,2.865,0,0,1-2.44,3.226l-.019,0a12.955,12.955,0,0,0,7.027,6.971,2.862,2.862,0,0,1,2.816-2.383c.072,0,.145,0,.217.008l4.366.322a2.863,2.863,0,0,1,2.641,3.062l-.234,3.188a2.858,2.858,0,0,1-2.847,2.65c-.072,0-.145,0-.217-.008l-2.288-.169c-.622-.016-1.245-.062-1.851-.137l-.224-.016a2.8,2.8,0,0,1-.572-.1,18.63,18.63,0,0,1-15.526-17.7l-.281-2.028a2.865,2.865,0,0,1,2.441-3.226l3.167-.439A2.84,2.84,0,0,1,104.961,256.871Zm9.8,19.7-1.195-.36a14.955,14.955,0,0,1-9.948-9.825l-.354-1.128,2.417-.335a.862.862,0,0,0,.734-.97l-.6-4.337a.86.86,0,0,0-.856-.742.833.833,0,0,0-.114.008l-3.166.439a.863.863,0,0,0-.734.971l.3,2.13,0,.052a16.682,16.682,0,0,0,13.918,15.854l.069.011.067.021a.876.876,0,0,0,.194.041l.3.023a16.964,16.964,0,0,0,1.7.126l.05,0,2.314.171.068,0a.858.858,0,0,0,.852-.8l.234-3.188a.86.86,0,0,0-.794-.92l-4.367-.322-.068,0a.84.84,0,0,0-.556.209.854.854,0,0,0-.3.588Z" transform="translate(-98.938 -256.87)" fill="#fff"/>
</svg>
