<svg xmlns="http://www.w3.org/2000/svg" xmlns:xlink="http://www.w3.org/1999/xlink" width="48.645" height="25.164" viewBox="0 0 48.645 25.164">
  <defs>
    <clipPath id="clip-path">
      <rect id="長方形_23" data-name="長方形 23" width="48.645" height="25.164" fill="#005c27"/>
    </clipPath>
  </defs>
  <g id="グループ_12" data-name="グループ 12" transform="translate(0 0)">
    <g id="グループ_11" data-name="グループ 11" transform="translate(0 0)" clip-path="url(#clip-path)">
      <path id="パス_18" data-name="パス 18" d="M29.624,2.037a25.46,25.46,0,0,0-19.961,0,1.3,1.3,0,0,0-.811,1.2V9.414A17,17,0,0,0,19.136,25.031a1.289,1.289,0,0,0,1.014,0A17,17,0,0,0,30.435,9.417V3.237a1.3,1.3,0,0,0-.811-1.2m-1.453,7.38a14.719,14.719,0,0,1-8.528,13.361l0-20.515A23.881,23.881,0,0,1,28.171,3.9Z" transform="translate(3.672 0)" fill="#005c27"/>
      <path id="パス_19" data-name="パス 19" d="M38.1,13.192a.481.481,0,0,0-.481.481v.484H36.136a4.722,4.722,0,0,0-1.041-2.514l1.05-1.05.342.342a.481.481,0,1,0,.679-.681l-.681-.681h0L35.8,8.893a.481.481,0,0,0-.681.679l.342.342-1.05,1.05A4.716,4.716,0,0,0,31.9,9.923V8.437h.482a.481.481,0,0,0,0-.962H30.457a.481.481,0,0,0,0,.962h.482V9.923a4.716,4.716,0,0,0-2.514,1.041l-1.05-1.05.342-.342a.481.481,0,0,0-.681-.679l-.681.679h0l-.681.681a.481.481,0,0,0,.679.681l.342-.342,1.05,1.05a4.722,4.722,0,0,0-1.041,2.514H25.22v-.484a.48.48,0,1,0-.961,0V15.6a.48.48,0,1,0,.961,0v-.482h1.486a4.707,4.707,0,0,0,1.041,2.513L26.7,18.682l-.341-.341a.481.481,0,0,0-.679.681l.679.679h0l.681.681a.481.481,0,0,0,.681-.679l-.342-.342,1.051-1.05a4.705,4.705,0,0,0,2.513,1.04V21.1h-.533a.481.481,0,1,0,0,.962h2.029a.481.481,0,0,0,0-.962H31.9v-1.75a4.705,4.705,0,0,0,2.513-1.04l1.051,1.05-.342.342a.481.481,0,1,0,.681.679l.681-.681h0l.679-.679a.481.481,0,0,0-.679-.681l-.341.341-1.051-1.05a4.707,4.707,0,0,0,1.041-2.513H37.62V15.6a.481.481,0,1,0,.962,0V13.673a.481.481,0,0,0-.481-.481M31.421,18.44a3.8,3.8,0,1,1,3.8-3.8,3.806,3.806,0,0,1-3.8,3.8" transform="translate(10.063 3.1)" fill="#005c27"/>
      <path id="パス_20" data-name="パス 20" d="M29.3,10.825a.48.48,0,1,0-.8.539l.47.695a.478.478,0,0,0,.4.211.469.469,0,0,0,.269-.082.481.481,0,0,0,.129-.668Z" transform="translate(11.791 4.402)" fill="#005c27"/>
      <path id="パス_21" data-name="パス 21" d="M29.34,13.055a.482.482,0,0,0-.59.338l-.219.811a.481.481,0,0,0,.338.59.49.49,0,0,0,.126.017.482.482,0,0,0,.464-.355l.219-.811a.481.481,0,0,0-.338-.59" transform="translate(11.828 5.408)" fill="#005c27"/>
      <path id="パス_22" data-name="パス 22" d="M28.427,11.9a.48.48,0,0,0-.649.2l-.392.743a.48.48,0,0,0,.2.649.473.473,0,0,0,.224.057.481.481,0,0,0,.426-.257l.392-.743a.48.48,0,0,0-.2-.649" transform="translate(11.336 4.914)" fill="#005c27"/>
      <path id="パス_23" data-name="パス 23" d="M31.331,13l-.787-.294a.481.481,0,0,0-.337.9l.787.294a.466.466,0,0,0,.168.031A.482.482,0,0,0,31.331,13" transform="translate(12.401 5.258)" fill="#005c27"/>
      <path id="パス_24" data-name="パス 24" d="M31.16,11.2l-.811.219a.481.481,0,0,0,.126.945.49.49,0,0,0,.126-.017l.809-.219a.481.481,0,1,0-.25-.928" transform="translate(12.442 4.637)" fill="#005c27"/>
      <path id="パス_25" data-name="パス 25" d="M9.691,5.61a.336.336,0,0,0-.337.337v.338H8.315a3.3,3.3,0,0,0-.729-1.76l.734-.734.241.239a.336.336,0,0,0,.475-.475L8.56,3.078h0L8.081,2.6a.336.336,0,1,0-.475.475l.239.241-.734.734a3.3,3.3,0,0,0-1.76-.729V2.281h.338a.337.337,0,0,0,0-.673H4.339a.337.337,0,0,0,0,.673h.338v1.04a3.3,3.3,0,0,0-1.76.729l-.734-.734.239-.241A.336.336,0,1,0,1.947,2.6l-.477.477h0l-.477.477a.336.336,0,1,0,.475.475l.241-.239.734.734a3.3,3.3,0,0,0-.729,1.76H.673V5.947a.337.337,0,1,0-.673,0V7.3a.337.337,0,0,0,.673,0V6.959h1.04a3.29,3.29,0,0,0,.729,1.759l-.736.736-.239-.239a.336.336,0,0,0-.475.475l.475.477h0l.477.477a.336.336,0,0,0,.475-.475L2.183,9.93l.736-.736a3.29,3.29,0,0,0,1.759.729v1.224H4.3a.337.337,0,1,0,0,.673h1.42a.337.337,0,1,0,0-.673H5.351V9.923a3.29,3.29,0,0,0,1.759-.729l.736.736-.239.239a.336.336,0,1,0,.475.475l.477-.477h0l.475-.477a.336.336,0,0,0-.475-.475l-.239.239-.736-.736a3.29,3.29,0,0,0,.729-1.759h1.04V7.3a.336.336,0,1,0,.672,0V5.947a.335.335,0,0,0-.335-.337M5.014,9.283A2.661,2.661,0,1,1,7.675,6.622,2.665,2.665,0,0,1,5.014,9.283" transform="translate(0 0.667)" fill="#005c27"/>
      <path id="パス_26" data-name="パス 26" d="M3.531,3.953a.337.337,0,0,0-.557.378l.33.487a.337.337,0,0,0,.557-.378Z" transform="translate(1.21 1.578)" fill="#005c27"/>
      <path id="パス_27" data-name="パス 27" d="M3.558,5.513a.336.336,0,0,0-.413.236l-.154.567a.337.337,0,0,0,.238.413.321.321,0,0,0,.088.013.338.338,0,0,0,.325-.249l.153-.567a.335.335,0,0,0-.236-.413" transform="translate(1.236 2.282)" fill="#005c27"/>
      <path id="パス_28" data-name="パス 28" d="M2.918,4.709a.336.336,0,0,0-.456.141l-.273.519a.336.336,0,0,0,.3.494.338.338,0,0,0,.3-.18l.274-.519a.34.34,0,0,0-.141-.456" transform="translate(0.892 1.936)" fill="#005c27"/>
      <path id="パス_29" data-name="パス 29" d="M4.951,5.478,4.4,5.273a.336.336,0,0,0-.236.63l.55.207a.351.351,0,0,0,.119.021.337.337,0,0,0,.117-.652" transform="translate(1.637 2.177)" fill="#005c27"/>
      <path id="パス_30" data-name="パス 30" d="M4.831,4.214l-.567.153a.337.337,0,0,0,.088.662.373.373,0,0,0,.088-.011l.567-.154a.336.336,0,1,0-.175-.649" transform="translate(1.666 1.742)" fill="#005c27"/>
    </g>
  </g>
</svg>
