<svg xmlns="http://www.w3.org/2000/svg" width="26.529" height="26.255" viewBox="0 0 26.529 26.255">
  <path id="パス_17797" data-name="パス 17797" d="M108.229,264.465l-.666-4.813a2.065,2.065,0,0,0-2.328-1.762l-3.514.487a2.065,2.065,0,0,0-1.762,2.329l.32,2.307a19.586,19.586,0,0,0,16.375,18.652,2.069,2.069,0,0,0,.464.093l.277.02a19.848,19.848,0,0,0,2,.148l2.568.189a2.062,2.062,0,0,0,2.21-1.907l.26-3.538a2.063,2.063,0,0,0-1.906-2.21l-4.846-.358a2.065,2.065,0,0,0-2.212,1.907l-.084,1.149a15.487,15.487,0,0,1-10.3-10.174l1.383-.191A2.065,2.065,0,0,0,108.229,264.465Z" transform="translate(-98.916 -256.867)" fill="none" stroke="#005c27" stroke-width="2"/>
</svg>
