<svg xmlns="http://www.w3.org/2000/svg" width="42" height="42" viewBox="0 0 42 42">
  <g id="modal-cluse" transform="translate(-1039 -372)">
    <g id="楕円形_13" data-name="楕円形 13" transform="translate(1039 372)" fill="#fff" stroke="#005c27" stroke-width="2">
      <circle cx="21" cy="21" r="21" stroke="none"/>
      <circle cx="21" cy="21" r="20" fill="none"/>
    </g>
    <g id="グループ_80563" data-name="グループ 80563" transform="translate(714 364)">
      <path id="線_31" data-name="線 31" d="M28,1.5H0A1.5,1.5,0,0,1-1.5,0,1.5,1.5,0,0,1,0-1.5H28A1.5,1.5,0,0,1,29.5,0,1.5,1.5,0,0,1,28,1.5Z" transform="translate(336.121 38.92) rotate(-45)" fill="#005c27"/>
      <path id="線_31-2" data-name="線 31" d="M28,1.5H0A1.5,1.5,0,0,1-1.5,0,1.5,1.5,0,0,1,0-1.5H28A1.5,1.5,0,0,1,29.5,0,1.5,1.5,0,0,1,28,1.5Z" transform="translate(336.121 19.121) rotate(45)" fill="#005c27"/>
    </g>
  </g>
</svg>
