<svg xmlns="http://www.w3.org/2000/svg" width="42" height="42" viewBox="0 0 42 42"><g transform="translate(-1388 -700)"><circle cx="21" cy="21" r="21" transform="translate(1388 700)" fill="#fff"/><path d="M21,2A19,19,0,0,0,7.565,34.435a19,19,0,1,0,26.87-26.87A18.876,18.876,0,0,0,21,2m0-2A21,21,0,1,1,0,21,21,21,0,0,1,21,0Z" transform="translate(1388 700)" fill="#005c27"/><path d="M7454.765,3529.812a1.5,1.5,0,0,1-1.061-2.561l5.517-5.517-5.517-5.517a1.5,1.5,0,0,1,2.121-2.122l6.578,6.578a1.5,1.5,0,0,1,0,2.122l-6.578,6.578A1.5,1.5,0,0,1,7454.765,3529.812Z" transform="translate(-2112.734 8179.054) rotate(-90)" fill="#005c27"/></g></svg>