<svg xmlns="http://www.w3.org/2000/svg" xmlns:xlink="http://www.w3.org/1999/xlink" width="70.721" height="54.156" viewBox="0 0 70.721 54.156">
  <defs>
    <clipPath id="clip-path">
      <rect id="長方形_22" data-name="長方形 22" width="70.721" height="54.156" fill="none"/>
    </clipPath>
  </defs>
  <g id="mv-icon" transform="translate(0 0)">
    <g id="グループ_9" data-name="グループ 9" transform="translate(0 0)" clip-path="url(#clip-path)">
      <path id="パス_6" data-name="パス 6" d="M14.449,40.913H47.107A3.7,3.7,0,0,0,50.8,37.226V15.178a3.506,3.506,0,0,0-3.5-3.5H14.185a3.435,3.435,0,0,0-3.423,3.425V37.226a3.7,3.7,0,0,0,3.687,3.687" transform="translate(4.589 4.982)" fill="#4d4d4d"/>
      <path id="パス_7" data-name="パス 7" d="M20.348,29.2H33.964c-2.946,3.245-2.013,8.506.933,11.751H19.228c2.946-3.245,4.065-8.506,1.12-11.751" transform="translate(8.199 12.454)" fill="#4d4d4d"/>
      <rect id="長方形_18" data-name="長方形 18" width="15.668" height="0.746" transform="translate(27.428 53.41)" fill="#4d4d4d"/>
      <rect id="長方形_19" data-name="長方形 19" width="10.1" height="0.635" transform="translate(30.273 45.896)" fill="#4d4d4d"/>
      <path id="パス_8" data-name="パス 8" d="M10.762,35.618H50.8V15.178a3.506,3.506,0,0,0-3.5-3.495H14.187a3.434,3.434,0,0,0-3.425,3.423Z" transform="translate(4.589 4.982)" fill="#4d4d4d"/>
      <path id="パス_9" data-name="パス 9" d="M46.944,34.769V13.832a.072.072,0,0,0-.071-.071H12.841V34.769Z" transform="translate(5.475 5.868)" fill="#fff"/>
      <path id="パス_10" data-name="パス 10" d="M23.951,30.679a1.2,1.2,0,1,0,1.2-1.2,1.2,1.2,0,0,0-1.2,1.2" transform="translate(10.213 12.569)" fill="#fff"/>
      <path id="パス_11" data-name="パス 11" d="M33.574,46.2H48.311a1.807,1.807,0,0,0,1.8-1.8V20.465a1.808,1.808,0,0,0-1.8-1.8H33.574a1.807,1.807,0,0,0-1.8,1.8V44.4a1.806,1.806,0,0,0,1.8,1.8" transform="translate(13.548 7.958)" fill="#4d4d4d"/>
      <rect id="長方形_20" data-name="長方形 20" width="15.174" height="21.027" transform="translate(46.903 29.047)" fill="#fff"/>
      <path id="パス_12" data-name="パス 12" d="M37.357,36.814a1.2,1.2,0,1,0,1.2-1.2,1.2,1.2,0,0,0-1.2,1.2" transform="translate(15.929 15.185)" fill="#fff"/>
      <path id="パス_13" data-name="パス 13" d="M42.371,44.3h9.547A1.288,1.288,0,0,0,53.2,43.015V24.4a1.288,1.288,0,0,0-1.284-1.285H42.371A1.288,1.288,0,0,0,41.087,24.4V43.015A1.288,1.288,0,0,0,42.371,44.3" transform="translate(17.52 9.858)" fill="#4d4d4d"/>
      <rect id="長方形_21" data-name="長方形 21" width="9.744" height="15.849" transform="translate(59.792 34.843)" fill="#fff"/>
      <path id="パス_14" data-name="パス 14" d="M44.684,37.034a.926.926,0,1,0,.926-.926.926.926,0,0,0-.926.926" transform="translate(19.054 15.397)" fill="#fff"/>
      <path id="パス_15" data-name="パス 15" d="M10.957,10.871,4.563,3.892,7,2.271Z" transform="translate(1.946 0.969)" fill="#4d4d4d"/>
      <path id="パス_16" data-name="パス 16" d="M11.891,10.008,10.684.366,13.479,0Z" transform="translate(4.556 0.001)" fill="#4d4d4d"/>
      <path id="パス_17" data-name="パス 17" d="M9.842,11.542,1.42,6.694,0,9.128Z" transform="translate(0 2.855)" fill="#4d4d4d"/>
    </g>
  </g>
</svg>
