<svg xmlns="http://www.w3.org/2000/svg" xmlns:xlink="http://www.w3.org/1999/xlink" width="110.085" height="91.266" viewBox="0 0 110.085 91.266">
  <defs>
    <linearGradient id="linear-gradient" x1="0.821" y1="0.102" x2="0.219" y2="1" gradientUnits="objectBoundingBox">
      <stop offset="0" stop-color="#21d6be"/>
      <stop offset="1" stop-color="#005c27"/>
    </linearGradient>
    <linearGradient id="linear-gradient-2" x1="0.776" y1="0" x2="0.126" y2="1" xlink:href="#linear-gradient"/>
  </defs>
  <g id="グループ_62716" data-name="グループ 62716" transform="translate(-102.506 -1255.732)">
    <g id="グループ_62682" data-name="グループ 62682" transform="translate(14266 10650.999)">
      <path id="合体_2" data-name="合体 2" d="M-486.247,168.181l-15.5-6.843a1,1,0,0,1-.6-.914v-9.932a1,1,0,0,1,.239-.648l-7.763-13.368a1,1,0,0,1-.112-.718l3.514-15.909a1,1,0,0,1,.9-.781,1,1,0,0,1,1.01.629l3.172,8.02,10.726,4.885v-1.139a1,1,0,0,1,.3-.711l10.129-10.019,2.9-10.716-7.814-7.515a1,1,0,0,1-.305-.778l.977-16.855a1,1,0,0,1,.636-.875,1,1,0,0,1,1.06.217l10.593,10.342-1.4,1.431-9.023-8.809-.823,14.206,6.692,6.436,1.54-5.685a1,1,0,0,1,.738-.713l12-2.8-.462-9.82a1,1,0,0,1,.193-.639l7.888-10.749a1,1,0,0,1,.914-.4,1,1,0,0,1,.806.59l6.958,15.785a1,1,0,0,1,.071.569l-2,11.879,14.67,10.49-1.164,1.626-15.178-10.851a1,1,0,0,1-.4-.98l2.051-12.2-6.14-13.927-6.655,9.068.485,10.3a1,1,0,0,1-.772,1.021l-12.232,2.855-4.955,18.285a.993.993,0,0,1-.262.449l-10.023,9.914v6.77a1,1,0,0,1-.163.548l-7,10.688a1,1,0,0,1-.6.424l-3.926.967v8.5l14.236,6.285,8.655-9.722,1.494,1.33-9.14,10.266a1,1,0,0,1-.747.335A1,1,0,0,1-486.247,168.181Zm-21.692-32.373,7.762,13.368,2.9-.715,6.618-10.111v-4.716l-.439.964-11.483-5.229a1,1,0,0,1-.516-.543l-2.118-5.356ZM-473,161.343l15.79-1.849,7.43-15.426,1.8.868-7.669,15.922a1,1,0,0,1-.785.559l-16.337,1.912Z" transform="translate(-13620 -9472.268)" fill="url(#linear-gradient)"/>
    </g>
    <path id="合体_3" data-name="合体 3" d="M-5506.124,317.488-5512,307.309l5.876-10.179h5.605l-4.482-7.763,9.45-16.368h18.9l9.448,16.368-9.448,16.366H-5489.4l.91,1.576-5.876,10.179Zm-3.568-10.179,4.723,8.178h9.444l4.721-8.178-.91-1.576h-3.838l-3.813-6.6h-5.6Zm31.884-3.576,8.294-14.366L-5477.807,275H-5494.4l-8.294,14.367,4.482,7.763h3.838l3.812,6.6Zm-16.589,0h1.529l-2.657-4.6h-1.529Z" transform="translate(5614.506 983.877)" fill="url(#linear-gradient-2)" style="mix-blend-mode: multiply;isolation: isolate"/>
  </g>
</svg>
