<svg xmlns="http://www.w3.org/2000/svg" width="21" height="21" viewBox="0 0 21 21">
  <path id="Icon_material-phone-in-talk" data-name="Icon material-phone-in-talk" d="M26.833,21.583a13.254,13.254,0,0,1-4.165-.665,1.191,1.191,0,0,0-1.19.28l-2.567,2.567a17.553,17.553,0,0,1-7.688-7.688L13.79,13.5a1.12,1.12,0,0,0,.292-1.167,13.254,13.254,0,0,1-.665-4.165A1.17,1.17,0,0,0,12.25,7H8.167A1.17,1.17,0,0,0,7,8.167,19.832,19.832,0,0,0,26.833,28,1.17,1.17,0,0,0,28,26.833V22.75A1.17,1.17,0,0,0,26.833,21.583ZM25.667,17.5H28A10.5,10.5,0,0,0,17.5,7V9.333A8.161,8.161,0,0,1,25.667,17.5ZM21,17.5h2.333A5.835,5.835,0,0,0,17.5,11.667V14A3.5,3.5,0,0,1,21,17.5Z" transform="translate(-7 -7)" fill="#0f65b8"/>
</svg>
