<svg xmlns="http://www.w3.org/2000/svg" width="12" height="12" viewBox="0 0 12 12">
  <g id="icon_glossary" transform="translate(0 -1)">
    <circle id="base" cx="6" cy="6" r="6" transform="translate(0 1)" fill="#aedfc3"/>
    <path id="_" data-name="?" d="M1.874-2.329a1.754,1.754,0,0,1-.105-.34,1.914,1.914,0,0,1-.046-.413,1.069,1.069,0,0,1,.161-.577,2.4,2.4,0,0,1,.4-.483,6.142,6.142,0,0,1,.52-.434q.28-.209.52-.408a2.357,2.357,0,0,0,.4-.418.794.794,0,0,0,.161-.481.714.714,0,0,0-.118-.41.95.95,0,0,0-.326-.293A1.666,1.666,0,0,0,2.97-6.76,2.7,2.7,0,0,0,2.4-6.817a2.989,2.989,0,0,0-1.869.695V-7.329a5.25,5.25,0,0,1,2.237-.5,4.452,4.452,0,0,1,1.007.11A2.834,2.834,0,0,1,4.6-7.4a1.679,1.679,0,0,1,.559.533,1.346,1.346,0,0,1,.2.742,1.47,1.47,0,0,1-.171.716,2.585,2.585,0,0,1-.431.577,3.73,3.73,0,0,1-.559.468q-.3.2-.559.408a2.489,2.489,0,0,0-.431.423.772.772,0,0,0-.171.486,1.1,1.1,0,0,0,.072.408,2.363,2.363,0,0,0,.145.308Zm.75,2.21a1.126,1.126,0,0,1-.665-.2.588.588,0,0,1-.276-.491.579.579,0,0,1,.276-.491,1.088,1.088,0,0,1,.665-.209,1.078,1.078,0,0,1,.658.209.579.579,0,0,1,.276.491.588.588,0,0,1-.276.491A1.115,1.115,0,0,1,2.624-.119Z" transform="translate(3.377 10.832)" fill="#005c27"/>
  </g>
</svg>
