<?xml version="1.0" encoding="utf-8"?>
<!-- Generator: Adobe Illustrator 26.2.1, SVG Export Plug-In . SVG Version: 6.00 Build 0)  -->
<svg version="1.1" id="レイヤー_1" xmlns="http://www.w3.org/2000/svg" xmlns:xlink="http://www.w3.org/1999/xlink" x="0px"
	 y="0px" viewBox="0 0 16 219" style="enable-background:new 0 0 16 219;" xml:space="preserve">
<style type="text/css">
	.st0{fill:#0F65B8;}
</style>
<g id="seminar_step2" transform="translate(-184.112 -6574.04)">
	<path id="パス_58" class="st0" d="M199,6578.1l-0.9-0.8c-0.4,0.2-0.8,0.3-1.2,0.3l-5.8,0.8v-3.8c0.1,0,0.3-0.1,0.3-0.3
		c0-0.2-0.1-0.2-0.3-0.2l-1.4-0.1v4.5l-4.2,0.6l0.1,1.3l4.1-0.6v4.3c0,2.3,0.6,3.2,3.6,3.2c2,0,3.9,0,5,0c0-0.5,0.1-1,0.2-1.5
		c-1.6,0.2-3.2,0.3-4.8,0.3c-2.4,0-2.6-0.3-2.6-2.1v-4.2l5.7-0.8c-0.9,1.3-2,2.5-3.2,3.6c0.5,0.2,0.9,0.5,1.2,0.8
		c1.3-1.4,2.5-2.8,3.6-4.3C198.5,6578.7,198.7,6578.4,199,6578.1z M199,6598.6l-0.2-1.3l-5.8,0.7l-0.4-3l4.2-0.5l-0.1-1.3l-4.3,0.5
		l-0.3-2.4c0.2-0.1,0.3-0.2,0.3-0.3c0-0.2-0.2-0.2-0.3-0.2l-1.4,0.2l0.4,2.9l-4.4,0.6l0.1,1.3l4.5-0.6l0.4,3l-6.1,0.8l0.2,1.3
		l6.1-0.8l0.8,5.5l1.4-0.2l-0.8-5.4L199,6598.6z M197,6625.2c0-0.1-0.1-0.1-0.3-0.2l-1.5-0.1v5.7c0,1.8,0,5.7-5.9,7.3
		c0.4,0.3,0.7,0.7,0.9,1.1c2.1-0.6,3.9-1.8,5.2-3.6c0.9-1.5,1.3-3.2,1.2-4.9v-5.1C196.8,6625.5,197,6625.5,197,6625.2z
		 M189.4,6625.6c0-0.2-0.1-0.2-0.3-0.2l-1.4-0.1v8.2h1.4v-7.6C189.2,6625.8,189.4,6625.7,189.4,6625.6z M196.8,6644v-1.3h-9v1.3
		H196.8z M198.9,6648.3v-1.3h-13.4v1.3h6.4c0,2.5-0.6,5.2-5.1,6.5c0.4,0.3,0.7,0.7,1,1.1c5.4-1.7,5.5-5.9,5.5-7.6L198.9,6648.3z
		 M198.9,6688.5v-12.4h-5.8v4.7h4.5v7.5c0,0.6-0.1,0.7-0.8,0.7c-0.3,0-0.7,0-1-0.1c0.2,0.4,0.4,0.9,0.4,1.4
		C198.1,6690.3,198.9,6690.1,198.9,6688.5z M197.6,6678h-3.3v-0.9h3.3V6678z M197.6,6679.8h-3.3v-1h3.3V6679.8z M191.4,6680.8v-4.7
		h-5.7v14.2h1.3v-9.5H191.4z M190.2,6678h-3.2v-0.9h3.2V6678z M190.2,6679.8h-3.2v-1h3.2V6679.8z M196.4,6686.1v-1h-3.7
		c0-0.2,0-0.5,0-1.2h3.2v-1h-1.7c0.2-0.3,0.4-0.6,0.5-1c0.3,0,0.4-0.1,0.4-0.2s-0.1-0.2-0.2-0.2l-1.1-0.4c-0.2,0.6-0.5,1.2-0.8,1.8
		h-2.4l0.7-0.2c-0.3-0.5-0.6-1-1-1.5l-1.1,0.5c0.4,0.4,0.7,0.8,0.9,1.2h-1.7v1h3c0,0.4,0,0.8-0.1,1.2h-3.4v1h3.2
		c-0.5,1.7-2.4,2.5-3.4,2.8c0.3,0.3,0.6,0.6,0.8,1c1.6-0.5,2.8-1.6,3.6-3.1c0.7,1.2,1.7,2.2,2.9,2.9c0.2-0.4,0.5-0.7,0.8-1
		c-1.2-0.5-2.3-1.4-3-2.6H196.4z M199.6,6701.5c-0.7-1.1-1.5-2.2-2.4-3.2l-1,0.6c0.5,0.6,0.7,0.9,0.9,1.2c-1.9,0.1-2.4,0.2-3.9,0.2
		c1.3-1.2,2.5-2.5,3.7-3.8h0.3c0.1,0,0.3,0,0.3-0.1s-0.2-0.2-0.3-0.3l-1-0.6c-0.8,1.1-1.7,2.1-2.7,3.1c-0.5-0.4-0.8-0.6-1-0.7
		c0.7-0.8,1.4-1.6,2-2.5c0.1,0,0.2,0,0.2,0c0.1,0,0.2,0,0.2-0.2c0-0.1-0.1-0.2-0.3-0.3l-0.6-0.2c1.3-0.2,2.5-0.5,3.8-0.8
		c0.1,0.1,0.3,0.1,0.4,0.2c0.1,0,0.2-0.1,0.2-0.2c0,0,0,0,0,0c0-0.1,0-0.2-0.1-0.3l-0.8-0.9c-2.5,0.8-5,1.2-7.6,1.2
		c0.3,0.4,0.5,0.8,0.6,1.2c2-0.2,2.5-0.2,2.9-0.3c-0.6,0.8-1.2,1.6-1.9,2.4c-0.4-0.2-0.8-0.5-1.3-0.8l-0.8,1c1.1,0.6,2.1,1.2,3.1,2
		l-1,1c-0.4,0-2.1,0-2.4,0l0.2,1.2c0,0.2,0.1,0.4,0.2,0.4c0.2,0,0.2-0.1,0.3-0.4c1.3,0,1.4,0,3.5-0.1v5.8h1.3v-5.9
		c0.8,0,1.1-0.1,3.2-0.2c0.3,0.4,0.5,0.8,0.7,1.2C198.9,6702,199.2,6701.7,199.6,6701.5L199.6,6701.5z M199.1,6705.9
		c-0.9-1.1-1.6-2.4-2.1-3.7l-1,0.5c0.5,1.3,1.2,2.6,2.1,3.8C198.3,6706.2,198.7,6706,199.1,6705.9z M190.2,6693.1
		c0-0.1-0.2-0.2-0.3-0.2l-1.2-0.4c-0.8,2.7-2.3,5.2-4.3,7.2c0.4,0.2,0.8,0.5,1.1,0.8c0.5-0.6,1-1.2,1.4-1.9v8.5h1.3v-9.7
		c0.1,0,0.1,0,0.2-0.1c0.1,0,0.1-0.1,0.1-0.2c0-0.1-0.2-0.2-0.6-0.3c0.7-1.1,1.2-2.3,1.6-3.6C190,6693.3,190.2,6693.3,190.2,6693.1z
		 M192.5,6703.1c0-0.1-0.2-0.2-0.3-0.3l-1-0.5c-0.5,1.3-1.2,2.5-2.1,3.6c0.4,0.2,0.8,0.4,1.1,0.6c0.7-1,1.4-2.1,1.9-3.3
		C192.4,6703.2,192.5,6703.2,192.5,6703.1L192.5,6703.1z M199,6716.6c0-3.6-2.8-5.9-6.3-5.9c-3.9,0.1-7.1,3.2-7.3,7.1
		c0,2.6,1.8,4.5,3,4.5c0.9,0,1.6-0.8,2.5-2.9c1-2.3,1.6-4.8,1.7-7.4c2.5-0.1,4.7,1.8,4.9,4.3c0,0.1,0,0.2,0,0.4
		c0,1.3-0.5,4.6-5.3,5.6c0.4,0.4,0.7,0.8,0.9,1.2c1.4-0.4,2.7-1.2,3.8-2.2C198.3,6720.1,199,6718.4,199,6716.6L199,6716.6z
		 M191.3,6712.2c-0.1,2.1-0.5,4.1-1.2,6c-0.4,1-1,2.5-1.6,2.5c-0.7,0-1.6-1.3-1.6-3C186.9,6715,188.8,6712.8,191.3,6712.2
		L191.3,6712.2z M198.9,6740.8v-12.5h-5.6v12.6h1.3v-1.5h3v1.4H198.9z M192.7,6738.6c-1.3-1.1-2.3-2.5-2.9-4.1h2.8v-1.2h-2.8
		c0-0.3,0-0.4,0-0.8v-2.4h2.3v-1.2h-4.3c0.3-0.8,0.4-1.2,0.4-1.5c0.3-0.1,0.4-0.1,0.4-0.3c0-0.1-0.1-0.2-0.3-0.2l-1.4-0.3
		c-0.4,1.9-1.1,3.8-2.2,5.4c0.4,0.1,0.9,0.3,1.2,0.5c0.5-0.8,0.9-1.6,1.2-2.4h1.2v2.5c0,0.1,0,0.4,0,0.7h-3.4v1.2h3.3
		c-0.4,2.3-1.6,4.4-3.6,5.8c0.4,0.2,0.8,0.5,1.1,0.9c1.6-1.3,2.8-3.1,3.4-5.1c0.5,1.3,1.3,2.5,2.4,3.5
		C192,6739.2,192.4,6738.9,192.7,6738.6z M197.6,6738.2h-3v-8.7h3V6738.2z M194.7,6756.2v-5.3h-4.2v6.7h1.1v-1.3H194.7z M193.6,6753
		h-2v-1.2h2V6753z M193.6,6755.3h-2v-1.4h2V6755.3z M199.8,6755.4c-0.4-0.2-0.7-0.5-0.9-0.8c0,0.3-0.2,2-0.5,2s-0.8-1.6-0.9-2
		c0.6-1,1.1-2,1.6-3c0.3,0,0.5,0,0.5-0.2c0-0.1-0.1-0.2-0.2-0.2l-1.2-0.7c-0.3,0.9-0.7,1.7-1.1,2.5c-0.2-1-0.3-2-0.3-3h2.8v-1.1
		h-2.9c-0.1-3.1-0.1-3.7-0.1-4.8c0.3-0.1,0.4-0.2,0.4-0.3c0-0.2-0.2-0.2-0.4-0.2l-1.1-0.1c0,1.2,0,3.4,0.1,5.4h-1.7
		c0.3-0.6,0.5-1.1,0.7-1.7c0.2,0,0.4,0,0.4-0.2c0-0.1,0-0.1-0.2-0.2l-1.1-0.3h1.5v-1.1h-2.1v-1.3c0.3-0.1,0.4-0.2,0.4-0.3
		c0-0.1-0.1-0.2-0.4-0.2l-1.3,0v1.9h-2v1.1h3.7c-0.2,0.8-0.5,1.7-0.8,2.5h-1.6l0.9-0.3c-0.2-0.7-0.4-1.5-0.7-2.2l-0.9,0.3
		c0.3,0.7,0.5,1.4,0.7,2.1h-1.4v1.1h5.9c0.1,1.5,0.3,2.9,0.6,4.4c-0.8,1.2-1.7,2.2-2.8,3.1c0.4,0.2,0.6,0.5,0.8,0.9
		c0.9-0.8,1.7-1.7,2.4-2.6c0.2,0.4,0.9,2.5,1.8,2.5C199.3,6758.3,199.6,6756.5,199.8,6755.4L199.8,6755.4z M189.9,6747.4v-1h-5v1
		H189.9z M189.7,6758v-5.3h-4.4v5.5h1.2v-1h2.1v0.7H189.7z M188.6,6756.2h-2.1v-2.4h2.1L188.6,6756.2z M199.3,6747.3
		c-0.3-1-0.6-1.9-1.1-2.9l-1.1,0.4c0.5,0.9,0.8,1.9,1,2.9C198.6,6747.5,198.9,6747.4,199.3,6747.3z M189.4,6745.3v-1h-4v1H189.4z
		 M189.4,6749.6v-1h-4v1H189.4z M189.4,6751.7v-1h-4v1H189.4z M199.8,6774.5c-0.7-1.3-1.5-2.5-2.4-3.7l-1.1,0.6
		c0.4,0.4,0.7,0.9,1,1.4c-0.6,0.1-1.6,0.2-2,0.3v-2.6h3.4v-4.2h-3.3v-1.3c0.1,0,0.4-0.1,0.4-0.3c0-0.2-0.3-0.2-0.4-0.2l-0.7-0.1
		c0.5-0.1,1.9-0.2,2.9-0.4c0.3,0.4,0.6,0.9,0.8,1.4c0.3-0.2,0.7-0.5,1.1-0.7c-0.8-1.4-1.8-2.6-2.8-3.8l-1,0.6
		c0.2,0.2,0.5,0.6,1.2,1.5c-1.2,0.2-2.4,0.3-3.6,0.4c0.5-1.1,0.6-1.2,1.1-2.3c0.2,0,0.5-0.1,0.5-0.2c0-0.1-0.2-0.2-0.4-0.2l-1.3-0.2
		c-0.3,1.1-0.7,2.1-1.1,3.1c-0.3,0-1.6,0.1-1.9,0.1l0.2,1.2c0,0.1,0.1,0.3,0.2,0.3c0.2,0,0.3-0.2,0.3-0.3c0.5,0,2.8-0.3,3.3-0.4v1.8
		h-3.3v5.1h1.2v-0.9h2.1v2.7c-0.6,0.1-3.4,0.3-4.1,0.3l0.3,1.3c0,0.1,0.1,0.3,0.2,0.3c0.2,0,0.3-0.3,0.3-0.4c3.5-0.4,5.6-0.7,7.1-1
		c0.5,0.8,0.6,1.2,0.8,1.5C199,6774.9,199.4,6774.7,199.8,6774.5L199.8,6774.5z M197.5,6769.3h-2.1v-2h2.1V6769.3z M194.1,6769.3
		h-2.1v-2h2.1V6769.3z M189.7,6765.9v-4.7h-4.4v1.2h3.1v2.4h-1.3l-1.3-0.3c0,1.8-0.3,3.7-0.8,5.4c0.4,0,0.9,0.1,1.3,0.2
		c0.1-0.3,0.2-0.7,0.2-1h1.9c0,1.5-0.2,2.9-0.5,4.3c-0.1,0.3-0.3,0.5-1,0.5c-0.4,0-0.8,0-1.2-0.1c0.3,0.4,0.5,0.9,0.5,1.4
		c1.7,0,2.3-0.4,2.5-0.8c0.7-1.1,0.8-5.2,0.8-6.6h-3c0-0.4,0.2-1.6,0.2-2H189.7z M199.9,6789.1c-0.5-0.1-0.9-0.4-1.2-0.7
		c-0.4,1.7-0.6,2.1-1.9,2.1h-1.9c-1,0-1.4-0.1-1.4-0.9v-4.1c2-1.4,3.9-3,5.6-4.8c0.4,0,0.5,0,0.5-0.2c0-0.1-0.1-0.2-0.2-0.3
		l-1.1-0.8c-1.3,1.7-3,3.2-4.8,4.5v-5.8c0.3-0.1,0.4-0.1,0.4-0.3c0-0.1-0.1-0.2-0.4-0.2l-1.3-0.1v12c0,1.3,0.2,2,2.2,2h2.5
		C198.7,6791.7,199.2,6791.3,199.9,6789.1z M191,6778.4c0-0.1-0.2-0.2-0.2-0.2l-1.3-0.6c-1,2.9-2.7,5.5-4.9,7.6
		c0.4,0.2,0.8,0.5,1.2,0.8c0.7-0.8,1.4-1.6,2-2.5v8.7h1.3v-9.9c0.1,0,0.4-0.1,0.4-0.3c0-0.1-0.2-0.2-0.6-0.3
		c0.3-0.6,1.4-2.6,1.7-3.2C190.9,6778.5,191,6778.5,191,6778.4L191,6778.4z"/>
	<path id="パス_57" class="st0" d="M197.7,6618.7v-1.1h-3.4l1.3-7.1h-7v1.2h5.5l-1.1,5.9h-6.3v1.1H197.7z M196.8,6660.3
		c0-0.1-0.1-0.2-0.2-0.3l-1.1-0.8c-2.3,3-5.5,5.2-9.2,6.2c0.4,0.3,0.7,0.6,0.9,1c1.6-0.6,3.1-1.3,4.5-2.2v6.5h1.3v-7.3
		c1.2-0.9,2.3-1.9,3.3-3C196.7,6660.5,196.8,6660.5,196.8,6660.3z"/>
</g>
</svg>
