<?xml version="1.0" encoding="utf-8"?>
<!-- Generator: Adobe Illustrator 26.2.1, SVG Export Plug-In . SVG Version: 6.00 Build 0)  -->
<svg version="1.1" id="レイヤー_1" xmlns="http://www.w3.org/2000/svg" xmlns:xlink="http://www.w3.org/1999/xlink" x="0px"
	 y="0px" viewBox="0 0 16 219" style="enable-background:new 0 0 16 219;" xml:space="preserve">
<style type="text/css">
	.st0{fill:#0F65B8;}
</style>
<g id="seminar_step3" transform="translate(-184.256 -7330.384)">
	<path id="パス_60" class="st0" d="M199.9,7335.7c-1.6-0.5-5.3-2.5-6.8-4.5c0.4-0.1,0.5-0.1,0.5-0.3c0-0.1-0.2-0.2-0.3-0.2
		l-1.4-0.3c-1.7,2.6-4.3,4.6-7.2,5.6c0.4,0.3,0.8,0.7,1.1,1.1c2.5-1.2,4.7-2.9,6.5-5.1c1.2,1.3,2.6,2.5,4.1,3.5h-7.8v1.2h7.8v-1.2
		c0.8,0.5,1.7,1,2.6,1.4C199.3,7336.5,199.6,7336.1,199.9,7335.7z M197.6,7339l-0.6-0.5h-9.8v1.2h8.6c-0.3,0.7-0.7,1.4-1.1,2.1
		c-0.8,1.1-1.7,2.1-2.8,3c0.5,0.2,0.9,0.4,1.3,0.8C195.1,7343.7,196.6,7341.5,197.6,7339z M199.9,7361.1c-1.6-0.2-3.1-0.8-4.4-1.6
		c1-0.8,1.9-1.8,2.7-2.9l-0.5-0.7h-4.3c0.2-0.3,0.2-0.4,0.4-0.5c0.2,0,0.5,0,0.5-0.1c0-0.1-0.1-0.2-0.2-0.2l-0.9-0.4
		c2.3-0.2,2.6-0.3,4.7-0.6c0.4,0.7,0.6,1.1,0.8,1.4c0.3-0.3,0.7-0.5,1-0.7c-0.7-1.3-1.4-2.5-2.3-3.6l-1,0.6c0.3,0.3,0.5,0.7,0.9,1.3
		c-2.2,0.2-2.4,0.3-3.7,0.4c0.4-0.4,0.7-0.7,1.8-1.9c0.3-0.3,1.7-1.9,2-2.3c0.2,0,0.5,0,0.5-0.1c0-0.1-0.1-0.2-0.3-0.3l-1.1-0.6
		c-0.9,1.3-1.9,2.4-2.9,3.6c-0.2-0.2-0.4-0.4-0.9-0.9c0.5-0.6,0.6-0.8,1.9-2.4c0.1,0,0.1,0,0.2,0c0.1,0,0.2,0,0.2-0.2
		c0-0.1-0.1-0.2-0.2-0.3l-1.1-0.5c-0.6,0.9-1.2,1.8-1.8,2.6c-0.6-0.5-1-0.8-1.2-1l-0.8,0.9c1.1,0.8,2.1,1.7,3.1,2.7
		c-0.3,0.3-0.6,0.6-0.8,0.9c-0.6,0-1.8,0.1-2.3,0.1l0.2,1.1c0.1,0.3,0.1,0.4,0.2,0.4s0.2-0.2,0.3-0.3c0.3,0,2-0.2,2.4-0.2
		c-0.9,1.6-2.2,3-3.7,4.1c0.4,0.2,0.8,0.4,1.1,0.8c0.6-0.5,1.1-1.1,1.6-1.7c0.4,0.6,1,1.2,1.6,1.7c-1.3,0.8-2.7,1.4-4.1,1.7
		c0.4,0.3,0.6,0.7,0.8,1.2c1.5-0.5,3-1.2,4.3-2.1c1.4,1,2.9,1.6,4.6,2C199.3,7361.8,199.5,7361.4,199.9,7361.1z M196.4,7356.9
		c-0.6,0.7-1.2,1.3-1.9,1.8c-0.7-0.5-1.2-1.1-1.7-1.8H196.4z M189.8,7348.4c0-0.1-0.1-0.2-0.2-0.2l-1.2-0.7c-1,1.5-2.2,2.8-3.7,3.9
		c0.4,0.2,0.8,0.5,1.1,0.8c1.3-1.1,2.5-2.3,3.5-3.7C189.5,7348.6,189.8,7348.6,189.8,7348.4z M190.4,7351.8c0-0.1-0.1-0.2-0.2-0.2
		l-1.2-0.6c-1.1,2-2.6,3.7-4.4,4.9c0.4,0.2,0.8,0.6,1.1,1c0.3-0.2,0.8-0.8,1.5-1.4v6.7h1.3v-7.7c0.1,0,0.4-0.1,0.4-0.3
		c0-0.1-0.2-0.2-0.3-0.2c0.2-0.3,1.2-1.7,1.5-2C190.1,7352,190.4,7352,190.4,7351.8z M199.1,7371.6c0-3.6-2.8-5.9-6.2-5.9
		c-3.9,0.1-7.1,3.2-7.3,7.1c0,2.6,1.8,4.5,3,4.5c0.9,0,1.6-0.8,2.5-2.9c1-2.3,1.6-4.8,1.7-7.4c2.5-0.1,4.7,1.8,4.9,4.3
		c0,0.1,0,0.2,0,0.4c0,1.3-0.5,4.6-5.3,5.6c0.4,0.4,0.7,0.8,0.9,1.2c1.4-0.4,2.7-1.2,3.8-2.2
		C198.4,7375.1,199.1,7373.4,199.1,7371.6L199.1,7371.6z M191.4,7367.2c-0.1,2.1-0.5,4.1-1.2,6c-0.4,1-1,2.5-1.6,2.5
		c-0.7,0-1.6-1.3-1.6-3C187,7370,188.8,7367.8,191.4,7367.2L191.4,7367.2z M199.4,7384.3l-1-0.9c-0.3,0.1-0.6,0.1-0.9,0.1h-11.9v1.3
		h11.6c-1.1,1.7-2.6,3.2-4.3,4.3c0.4,0.3,0.7,0.6,1,1c1.9-1.4,3.6-3.1,4.9-5.1C199.1,7384.7,199.2,7384.5,199.4,7384.3L199.4,7384.3
		z M193.2,7386.4c0-0.1-0.2-0.2-0.3-0.2l-1.5-0.1c0.2,4.6-1.2,7.1-4.8,9c0.4,0.3,0.8,0.6,1.2,0.9c4.8-2.7,4.9-6.8,5-9.3
		C193,7386.7,193.2,7386.6,193.2,7386.4z M198.5,7401.8l-0.8-0.8c-0.3,0.2-0.7,0.2-1.1,0.2h-4.8c0.2-0.4,0.4-0.7,0.8-1.5
		c0.1,0,0.4,0,0.4-0.2c0-0.1-0.2-0.2-0.2-0.2l-1.3-0.6c-1.1,2.9-3.1,5.5-5.6,7.4c0.4,0.3,0.7,0.6,1.1,1c1.6-1.3,2.9-2.9,4.1-4.6h5.3
		c-2.1,6.5-6,8.5-8.8,9.7c0.4,0.3,0.7,0.7,1.1,1c5.9-2.4,7.8-6.9,9.3-10.5C198.1,7402.5,198.3,7402.1,198.5,7401.8z M192.8,7418.1
		c-1.4-0.9-2.8-1.6-4.4-2.1l-0.8,1.1c1.5,0.5,3,1.3,4.3,2.2C192.2,7418.8,192.5,7418.4,192.8,7418.1z M199.7,7420.6
		c-0.3-0.4-0.7-0.7-0.9-1.2c-2.8,4.2-6.9,7.4-11.8,9l0.7,1.2c0.1,0.1,0.1,0.3,0.3,0.3c0.2,0,0.2-0.2,0.3-0.4
		C192.8,7427.8,196.8,7424.7,199.7,7420.6z M191,7421.8c-1.3-0.9-2.7-1.6-4.2-2.2l-0.8,1.1c1.5,0.6,2.8,1.3,4.1,2.2
		C190.3,7422.5,190.6,7422.1,191,7421.8z M191.6,7453.4c-1.4-1.2-2.9-2.2-4.6-3l-0.8,1.2c1.7,0.8,3.2,1.8,4.5,3.1
		C191,7454.2,191.3,7453.8,191.6,7453.4L191.6,7453.4z M199.4,7454.4c-0.3-0.4-0.6-0.8-0.9-1.2c-2.7,4.5-7.1,7.7-12.2,8.8l0.9,1.4
		c0,0.1,0.1,0.2,0.3,0.2c0.2,0,0.2-0.1,0.2-0.4C190.2,7462.3,195.8,7460.2,199.4,7454.4z"/>
	<path id="パス_59" class="st0" d="M196.4,7444.4v-9.6h-8.6v1.1h7.4v2.7H188v1.2h7.2v2.8h-7.6v1.1h7.6v0.6L196.4,7444.4z"/>
</g>
</svg>
