<?xml version="1.0" encoding="utf-8"?>
<!-- Generator: Adobe Illustrator 26.2.1, SVG Export Plug-In . SVG Version: 6.00 Build 0)  -->
<svg version="1.1" id="レイヤー_1" xmlns="http://www.w3.org/2000/svg" xmlns:xlink="http://www.w3.org/1999/xlink" x="0px"
	 y="0px" viewBox="0 0 16 219" style="enable-background:new 0 0 16 219;" xml:space="preserve">
<style type="text/css">
	.st0{fill:#0F65B8;}
</style>
<g id="グループ_30" transform="translate(-184.24 -6169.04)">
	<path id="パス_59" class="st0" d="M199.1,6173.1l-0.9-0.8c-0.4,0.2-0.8,0.3-1.2,0.3l-5.8,0.8v-3.8c0.1,0,0.3-0.1,0.3-0.3
		c0-0.2-0.1-0.2-0.3-0.2l-1.4-0.1v4.5l-4.2,0.6l0.1,1.3l4.1-0.6v4.3c0,2.3,0.6,3.2,3.6,3.2c2,0,3.9,0,5,0c0-0.5,0.1-1,0.2-1.5
		c-1.6,0.2-3.2,0.3-4.8,0.3c-2.4,0-2.6-0.3-2.6-2.1v-4.2l5.7-0.8c-0.9,1.3-2,2.5-3.2,3.6c0.5,0.2,0.9,0.5,1.2,0.8
		c1.3-1.4,2.5-2.8,3.6-4.3C198.7,6173.7,198.9,6173.4,199.1,6173.1z M199.1,6193.6l-0.2-1.3l-5.8,0.7l-0.4-3l4.2-0.5l-0.1-1.3
		l-4.3,0.5l-0.3-2.4c0.2-0.1,0.3-0.2,0.3-0.3c0-0.2-0.2-0.2-0.3-0.2l-1.4,0.2l0.4,2.9l-4.4,0.6l0.1,1.3l4.5-0.6l0.4,3l-6.1,0.8
		l0.2,1.3l6.1-0.8l0.8,5.5l1.4-0.2l-0.8-5.4L199.1,6193.6z M197.9,6215.7v-1.1h-3.4l1.3-7.1h-7v1.2h5.5l-1.1,5.9h-6.3v1.1H197.9z
		 M197.2,6220.2c0-0.1-0.1-0.1-0.3-0.2l-1.5-0.1v5.7c0,1.8,0,5.7-5.9,7.3c0.4,0.3,0.7,0.7,0.9,1.1c2.1-0.6,3.9-1.8,5.2-3.6
		c0.9-1.5,1.3-3.2,1.2-4.9v-5.1C197,6220.5,197.2,6220.5,197.2,6220.2L197.2,6220.2z M189.6,6220.6c0-0.2-0.1-0.2-0.3-0.2l-1.4-0.1
		v8.2h1.4v-7.6C189.4,6220.8,189.6,6220.7,189.6,6220.6L189.6,6220.6z M196.9,6239v-1.3h-9v1.3H196.9z M199.1,6243.3v-1.3h-13.4v1.3
		h6.4c0,2.5-0.6,5.2-5.1,6.5c0.4,0.3,0.7,0.7,1,1.1c5.4-1.7,5.5-5.9,5.5-7.6L199.1,6243.3z M198.7,6282v-10.9h-7v10.9h1.3v-0.9h4.4
		v0.9H198.7z M197.4,6275.5H193v-3.1h4.4V6275.5z M197.4,6279.9H193v-3.3h4.4V6279.9z M199.7,6284.6v-1.2h-9.5v1.2H199.7z
		 M190.9,6277c-0.3,0.1-0.9,0.4-2.2,0.8v-3.1h2.2v-1.2h-2.2v-2.3c0.3-0.1,0.5-0.2,0.5-0.4c0-0.2-0.2-0.2-0.3-0.2l-1.5-0.1v3h-2.4
		v1.2h2.4v3.5c-0.8,0.3-1.7,0.5-2.5,0.7l0.2,1.4c0,0.1,0.1,0.3,0.2,0.3c0.2,0,0.2-0.2,0.3-0.5c0.8-0.3,0.9-0.3,1.8-0.6v3.9
		c0,0.4-0.1,0.6-0.7,0.6c-0.4,0-0.8,0-1.2-0.1c0.2,0.4,0.3,0.9,0.3,1.4c2.4,0.1,2.9-0.2,2.9-1.8v-4.4c0.7-0.2,1.4-0.5,2.1-0.8
		C190.9,6277.8,190.9,6277.4,190.9,6277L190.9,6277z M198.7,6289c0-0.2-0.2-0.2-0.3-0.3l-1.2-0.5c-0.6,1.5-1.3,2.9-2.3,4.2
		c0.4,0.2,0.8,0.3,1.2,0.6c0.8-1.2,1.5-2.4,2.1-3.8C198.5,6289.2,198.7,6289.2,198.7,6289z M189.8,6292.3c-0.6-1.4-1.4-2.8-2.2-4.1
		l-1.2,0.6c0.9,1.3,1.6,2.7,2.2,4.1C189,6292.7,189.4,6292.4,189.8,6292.3z M198.7,6302.2v-8.8h-5.5v-5.2c0.1,0,0.4-0.1,0.4-0.3
		c0-0.2-0.2-0.2-0.4-0.2l-1.4-0.1v5.8h-6v1.2h11.6v2.2h-10.6v1.2h10.6v2.3h-11.7v1.2h11.7v0.8L198.7,6302.2z M199.2,6311.6
		c0-3.6-2.8-5.9-6.3-5.9c-3.9,0.1-7.1,3.2-7.3,7.1c0,2.6,1.8,4.5,3,4.5c0.9,0,1.6-0.8,2.5-2.9c1-2.3,1.6-4.8,1.7-7.4
		c2.5-0.1,4.7,1.8,4.9,4.3c0,0.1,0,0.2,0,0.4c0,1.3-0.5,4.6-5.3,5.6c0.4,0.4,0.7,0.8,0.9,1.2c1.4-0.4,2.7-1.2,3.8-2.2
		C198.5,6315.1,199.2,6313.4,199.2,6311.6z M191.5,6307.2c-0.1,2.1-0.5,4.1-1.2,6c-0.4,1-1,2.5-1.6,2.5c-0.7,0-1.6-1.3-1.6-3
		C187.1,6310,188.9,6307.8,191.5,6307.2z M191.1,6330.5c0.6,1,1.4,2,2.3,2.8c-1.2,0.8-2.5,1.4-3.9,1.8c0.3,0.3,0.6,0.7,0.8,1.1
		c1.5-0.5,2.9-1.2,4.1-2.1c1.4,1,3,1.7,4.6,2.1c0.2-0.4,0.4-0.9,0.7-1.2c-1.6-0.3-3.1-0.9-4.4-1.8c1.3-1.2,2.3-2.6,3-4.2l-0.6-0.6
		h-7.4v1.2h6.3c-0.5,1.1-1.3,2.1-2.2,2.8c-0.9-0.7-1.6-1.7-2.2-2.7L191.1,6330.5z M188.9,6325c-1,2-2.5,3.8-4.2,5.2
		c0.4,0.2,0.8,0.6,1.1,0.9c0.6-0.5,1.1-1.1,1.6-1.7v6.8h1.3v-7.7c0.2-0.1,0.3-0.1,0.3-0.3c0-0.1-0.2-0.2-0.5-0.3
		c0.5-0.6,0.9-1.2,1.2-1.9c0.3,0,0.4,0,0.4-0.2c0-0.1-0.1-0.2-0.2-0.2L188.9,6325z M188.6,6321.4c-0.9,1.5-2.2,2.8-3.6,3.8
		c0.4,0.2,0.7,0.5,1,0.8c1.3-1,2.5-2.2,3.5-3.6c0.3,0,0.4,0,0.4-0.2c0-0.1-0.1-0.2-0.2-0.2L188.6,6321.4z M195.4,6326
		c0,1.4,0.8,1.5,2.1,1.5c1.2,0,1.9,0,2.2-2.1c-0.4-0.1-0.8-0.3-1.1-0.6c-0.2,1.3-0.3,1.5-1.3,1.5c-0.7,0-0.7-0.3-0.7-0.5v-3.7h-5
		c0,3-0.1,4-1.6,5.4c0.4,0.2,0.8,0.5,1.1,0.8c1.7-1.8,1.8-3.1,1.9-5h2.4V6326z M193.8,6347.4v-1h-3.7v-1h2.4v-1h-2.4v-1h2.7v-0.5
		h0.7v-2.8h-3.4v-0.9c0.1,0,0.2-0.1,0.3-0.1c0.1,0,0.1-0.1,0.1-0.2c0-0.1-0.1-0.2-0.4-0.2l-1.3-0.1v1.5h-3.5v2.8h0.8v0.5h2.7v1h-2.4
		v1h2.4v1h-3.7v1L193.8,6347.4z M192.4,6342.3h-2.2v-0.8c0.2,0,0.4-0.1,0.4-0.2c0-0.1-0.1-0.1-0.1-0.2h1.9V6342.3z M188.9,6342.3
		h-2.3v-1.2h2.3V6342.3z M192.9,6353.1v-4.9h-6.7v5.1h1.3v-0.7h4.1v0.5L192.9,6353.1z M191.6,6351.5h-4.1v-2.2h4.1V6351.5z
		 M199.5,6338.9c0-0.2-0.2-0.2-0.4-0.2l-1.3-0.1v12.3c0,0.7,0,1.1-0.9,1.1c-0.4,0-0.9-0.1-1.3-0.1c0.3,0.4,0.5,0.9,0.6,1.4
		c0.7,0,1.4,0,2-0.2c0.8-0.3,0.9-0.8,0.9-2v-11.9C199.4,6339,199.5,6339,199.5,6338.9L199.5,6338.9z M196.3,6340
		c0-0.1-0.1-0.2-0.4-0.2l-1.3-0.1v9.4h1.3v-8.9C196.2,6340.2,196.3,6340.2,196.3,6340z M195.7,6368.6v-2.1h3.3v-1.2h-3.3v-2h3.3
		v-7.2h-7.8v7.2h3.2v2h-3.1v1.2h3.1v2h-4.3v1.2h9.6v-1.2L195.7,6368.6z M192.5,6359.3v-2h2v2H192.5z M194.5,6360.3v2h-2v-2H194.5z
		 M195.7,6359.3v-2h2.1v2H195.7z M197.8,6360.3v2h-2.1v-2H197.8z M188.5,6357.8h2.1v-1.2H185v1.2h2.1v3.8h-1.8v1.2h1.8v4.4
		c-1.6,0.4-1.6,0.4-2.4,0.6l0.3,1.1c0,0.2,0.1,0.4,0.3,0.4c0.2,0,0.2-0.2,0.3-0.4c2.2-0.7,3.6-1.2,4.9-1.7c0-0.4,0-0.9,0.1-1.3
		c-0.4,0.2-1.3,0.5-2.2,0.8v-3.9h1.8v-1.2h-1.8L188.5,6357.8z M189.9,6376.5c0.5-0.7,0.9-1.5,1.3-2.2l-0.5-0.4h-2.5
		c0.1-0.2,0.2-0.5,0.3-0.6c0.2,0,0.4-0.1,0.4-0.2c0-0.2-0.3-0.2-0.3-0.2l-1.1-0.3c-0.6,1.7-1.5,3.2-2.8,4.5c0.4,0.1,0.8,0.3,1.1,0.6
		c0,0,0.2-0.3,0.3-0.4v3.6c0,2.8-0.4,4.3-1.3,5.8c0.4,0.1,0.7,0.4,1,0.6c0.8-1.3,1.2-2.8,1.3-4.3h3.7v2c0,0.8,0,1-0.8,1
		c-0.3,0-0.6,0-0.9,0c0.2,0.4,0.3,0.9,0.4,1.3c2,0,2.4-0.4,2.4-2.1v-8.6L189.9,6376.5z M188.5,6377.6v1.7h-1.3v-1.7H188.5z
		 M190.9,6377.6v1.7h-1.4v-1.7H190.9z M190.9,6381.9h-1.4v-1.7h1.4L190.9,6381.9z M187.2,6380.2h1.3v1.7h-1.3c0-0.4,0-0.5,0-1.1
		V6380.2z M186.7,6376.5c0.4-0.5,0.7-1.1,1.1-1.6h1.9c-0.3,0.6-0.6,1.1-1,1.6H186.7z M194.6,6374.2c-0.2,1.4-1.1,2.5-2.4,3.1
		c0.4,0.2,0.7,0.6,1,1c1.4-1,2.3-2.5,2.6-4.1h2.3c-0.1,2.6-0.5,2.6-1.1,2.6c-0.4,0-0.8,0-1.1-0.1c0.3,0.4,0.4,0.8,0.5,1.3
		c2.2,0,3-0.3,3-4.8h-6.7v1.1L194.6,6374.2z M194.5,6379.9c0.2-0.4,0.2-0.5,0.3-0.7c0.2,0,0.3-0.1,0.3-0.2c0-0.1-0.1-0.2-0.3-0.2
		l-0.9-0.3c-0.3,1.1-0.9,2.2-1.6,3.1c0.4,0.1,0.7,0.3,1,0.6c0.3-0.4,0.5-0.7,0.7-1.2h1.7v1.9h-3.1v1.1h3.1v3.4h1.2v-3.4h2.8v-1.1
		h-2.8v-1.9h2.4v-1.1h-2.4v-1.1c0.3-0.1,0.4-0.2,0.4-0.3c0-0.2-0.3-0.2-0.4-0.2l-1.2-0.1v1.7L194.5,6379.9z"/>
	<path id="パス_60" class="st0" d="M197,6255.3c0-0.1-0.1-0.2-0.2-0.3l-1.1-0.8c-2.3,3-5.5,5.2-9.2,6.2c0.4,0.3,0.7,0.6,0.9,1
		c1.6-0.6,3.1-1.3,4.5-2.2v6.5h1.3v-7.3c1.2-0.9,2.3-1.9,3.3-3C196.8,6255.5,197,6255.5,197,6255.3z"/>
</g>
</svg>
